<svg version="1.2" xmlns="http://www.w3.org/2000/svg" viewBox="0 0 854 854" width="150" height="150">
	<defs>
		<style>
			.s0 { opacity: .97;fill: #489e9c } 
			.s1 { opacity: .98;fill: #489e9c } 
			.s2 { opacity: .96;fill: #489e9c } 
			.s3 { opacity: .86;fill: #489e9c } 
			.s4 { opacity: .7;fill: #489e9c } 
			.s5 { opacity: .93;fill: #489e9c } 
			.s6 { opacity: .78;fill: #489e9c } 
			.s7 { opacity: .95;fill: #489e9c } 
			.s8 { opacity: .94;fill: #489e9c } 
			.s9 { opacity: .76;fill: #489e9c } 
			.s10 { opacity: .77;fill: #489e9c } 
			.s11 { opacity: .81;fill: #489e9c } 
			.s12 { opacity: .84;fill: #489e9c } 
			.s13 { opacity: .75;fill: #489e9c } 
			.s14 { opacity: .82;fill: #489e9c } 
			.s15 { opacity: .85;fill: #489e9c } 
			.s16 { opacity: .79;fill: #489e9c } 
			.s17 { opacity: .83;fill: #489e9c } 
		</style>
	</defs>
	<g>
		<path fill-rule="evenodd" class="s0" d="m408.5 47.5q142.34-4.5 203.5 123 30.56 71.84 28.5 150 0.7 60.47-14.5 119-0.45 41.05-3 82-10.74 67.74-78.5 76.5-29.67 4.69-57.5-6.5-64.22 15.59-128.5 0.5-37.8-11.14-67-37-27.58-5.91-47.5-25.5-17.3-26.89-19-59-0.5-13.5-1-27-15.51-51.35-12.5-105-0.46-70.94 15.5-140 35.44-142.08 181.5-151zm49.5 321q-7.66-16.1-2-33 5.29-11.41 13-1 16.32 27.31 35 53 9.29 23.38 18 47 2.87 7.25 8 13 1-12.5 0-25-1.25-1.25-2.5-2.5-5.07-0.26-10-1.5-4.66-13.24-9-26.5 17.25-5.65 35.5-7.5 5.9-0.61 8 5 6.23 21.57 8 44 2 5 4 10-1.57-28.6-6-57-2.12-7.86-6-15-9.63-13.76-17-29-5.58-13.5-4-28-0.52-5.97 5-8 5.34 2.33 9 7 13.27 18.54 28 36 7.19 9.21 12 20 4.66 32.9 8 66 1.61-17.72 2.5-35.5-0.85-21.49-5-42.5-0.4-9.89 3.5-19 4.99-9.21 11-1 10.16 23.81 16 49 5.41-33.25 5.5-67 0.61-74.83-27.5-144-58.25-128.77-199.5-113.5-87.24 10.7-133.5 84.5-26.97 52.38-34 111-7.4 60.79-5 122 0.72-19.24 5-38 8.5-22 17-44 1.6-7.14 8.5-5.5 8.13 5.5 8 15.5-1.82 15.3-6.5 30-4.46 27.93-2 56 3.94-27.43 7-55 2.21-6.12 5-12 22.11-30.11 46.5-58.5 2.8-1.95 6-1 7.64 15 0.5 30.5-11.4 19.9-24 39-2.41 4.32-4 9-4 27-7 54 3.39-6.68 5-14 2.95-24.31 12-47 24.28-26.83 47.5-54.5 4.26-3.18 8 0.5 5.72 25.12-9.5 46-12.7 12.19-22 27-3.41 18.02-6 36 6.95-16.9 17-32 18.25-24.25 36.5-48.5 2.8-1.95 6-1 7.3 8.41 5.5 19.5-9.67 23.35-24 44-9.3 34.52-14 70-2.84 16.01-1 32 1.93 8.12 10.5 8 18.87-1.05 28.5-17 2.55-14.25 7-28 5.43-9.43 16-12 4.37 0.87 6 5 2 23.98 2 48-18.3 35.84-48.5 62.5-21.41 17.13-49 15 6.6 5.09 14 9 50.8 24.39 107 18 15.73-1.16 31-5-27.5-28.02-44.5-63.5-2.39-6.35-3.5-13 12.12-24.99 27-48.5 11.88 0.37 13.5 12.5 0.56 18.71-5.5 36.5 4.63 16.62 22 18 10.7 2.84 17.5-5.5 5.13-21.08-1-42-10.26-39.02-25.5-76-4.81-16.63-14.5-31z"/>
	</g>
	<g>
		<path fill-rule="evenodd" class="s0" d="m404.5 65.5q11.72 0.37 23 3.5 1.25 1.25 2.5 2.5-0.93 47.51 0.5 95-0.39 5.93-3.5 11-6.27 6.44-10-2-25.54-40.1-34-87-3.86-14.02 9.5-19.5 6.18-1.79 12-3.5z"/>
	</g>
	<g>
		<path fill-rule="evenodd" class="s1" d="m439.5 66.5q36.08 3.76 70 16.5 15.93 6.45 25.5 20.5 4.28 9.81 1 20-35.05 60.85-81.5 113.5-7.96 5.71-17 9.5-2.29-0.04-3.5-2 0.12-88.02 3-176 1.49-0.85 2.5-2z"/>
	</g>
	<g>
		<path fill-rule="evenodd" class="s1" d="m370.5 71.5q4.42-0.42 8.5 1 1 7.02-3 13-1.62 14.01 4 27 11.33 29 25 57 9.41 15.9 20 31 1 48.5 0 97-2.09 14.17-13.5 5.5-4.31-3.81-7.5-8.5-5.72-14.69-12-29-24.27-25.26-44-54-22.14-42.28-36-88-5.21-13.81 5.5-23.5 7.24-5.37 15-10 18.95-9.73 38-18.5z"/>
	</g>
	<g>
		<path fill-rule="evenodd" class="s1" d="m547.5 113.5q6.09 0.34 8.5 6 13.18 18.2 24 38 10.09 18.24 4 38-11.45 20.38-28 37-29.55 29.05-60 57-5 6-10 12-6.76 13.53-16.5 25-3.32-4.07-8.5-5-13.1 8.17-14 24-4.37 4.57-10.5 3.5-1.8-1.35-2.5-3.5-0.38-38.56 3-77 1-3 2-6 53.69-57.68 96-124 7.83-11.77 12.5-25z"/>
	</g>
	<g>
		<path fill-rule="evenodd" class="s0" d="m291.5 124.5q9.33 2.58 12.5 12 6.31 22.06 13 44 16.73 36.49 41 68 24 29 48 58 10.74 12.24 15 28 2.41 36.21-4 72-1.89 7.53-8.5 3.5-10.44-12.94-22-25-7.65-5.15-16-9 3.75-6.75 7.5-13.5 0.84-0.78 2-1 9.47 6.49 19 13 0.25-0.5 0.5-1-8-9.5-16-19 7.87-12.49 12-26.5-1.57-11.72-10-20-10.81-5.27-18.5 4.5-0.07-7.72 0.5-15.5 1.39-11.44-6-20-2.45-0.9-5-1.5-16.02 5.27-24.5 20-1.26 2.26-3.5 1.5 5.33-11.7 3.5-24.5-5.01-16.38-20.5-9.5-3.25 4.25-6.5 8.5-27.77-28.04-46-63-3.01-7.79-4.5-16 4.08-22.16 16.5-41 8-12 16-24 2.11-1.92 4.5-3z"/>
	</g>
	<g>
		<path fill-rule="evenodd" class="s0" d="m592.5 200.5q2.55-0.24 5 0.5 8.33 10.91 11.5 24.5 10.74 34.32 2 69-5.38 12.89-16.5 21.5-11.97 9.98-25 18.5-12.53-15.29-24-31.5-12.54-6.97-19.5 5.5-4.57 14.44 0 29 4.34 10.18 9.5 20-15.1 11.28-32 18.5-16.3-21.73-28.5-45.5 53.64-50.14 102-105 7.01-13.05 15.5-25z"/>
	</g>
	<g>
		<path fill-rule="evenodd" class="s2" d="m248.5 221.5q4.93-0.35 7.5 4 20.7 27.2 42.5 53.5-12.73 15.73-25.5 31.5-1.35-11.55-8-21-10.2-10.43-19 1-6.15 10.44-10 22-2.96-21.98 1-44 2.52-15.6 6-31 1.44-8.56 5.5-16z"/>
	</g>
	<g>
		<path fill-rule="evenodd" class="s3" d="m613.5 321.5q4.51-0.38 5.5 4 1.31 13.09-1 26-4.41-13.59-14.5-23.5 4.89-3.68 10-6.5z"/>
	</g>
	<g>
		<path fill-rule="evenodd" class="s4" d="m584.5 341.5q1.11-0.2 2 0.5-1.63 5.26-3.5 10.5-2.61-2.73-4.5-6 3.03-2.53 6-5z"/>
	</g>
	<g>
		<path fill-rule="evenodd" class="s5" d="m446.5 359.5q8.22 16.68 17 33.5-8.32 3.27-17 6-5.85 6.36-14 3.5-3-16.27 4.5-31 4.4-6.32 9.5-12z"/>
	</g>
	<g>
		<path fill-rule="evenodd" class="s6" d="m539.5 369.5q1.98-0.26 3.5 1 1.68 4.12 4.5 7.5-16.69 1.2-33 4 12.93-5.55 25-12.5z"/>
	</g>
	<g>
		<path fill-rule="evenodd" class="s7" d="m367.5 383.5q21.63 10.64 33.5 32 1.34 3.79-1.5 6.5-19.78 2.38-39.5 4.5 2.1-21.74 7.5-43z"/>
	</g>
	<g>
		<path fill-rule="evenodd" class="s5" d="m472.5 399.5q2.79 12.87 8 25-13.6 3.99-26-3.5-7.17-5.62-7.5-14.5 12.11-5.47 25.5-7z"/>
	</g>
	<g>
		<path fill-rule="evenodd" class="s7" d="m414.5 661.5q36.8-4.24 47.5 31 4.76 29.2-19.5 45.5-32.67 13.44-52.5-15.5-14.12-31.5 11.5-54.5 6.22-4.11 13-6.5zm-0.5 15q-9.94 29.65 3 58 6.38 7.85 13 0 2-4 4-8 8.55-25.56 0-51-2.52-8.27-10.5-11-6.53 4.3-9.5 12z"/>
	</g>
	<g>
		<path fill-rule="evenodd" class="s7" d="m648.5 661.5q34.43-4.17 46.5 28 7.94 36.87-26.5 51.5-44.98 5.79-50-39.5 1.98-30.04 30-40zm2.5 8q-11.15 23.94-6 50 1.4 11.04 9.5 18.5 5.02 1.4 8.5-2.5 3.29-4.58 5-10 7.4-26.17-1-52-2.78-7.54-10.5-9-2.91 2.15-5.5 5z"/>
	</g>
	<g>
		<path fill-rule="evenodd" class="s5" d="m47.5 662.5q9.5 0 19 0-0.25 13.01 0.5 26 22.5-13 45-26 0.75 17.49 0.5 35-9.07-1.3-12.5-10-10.09-9.98-21.5-2-1.62 1.29-0.5 3 17.54 25.29 34.5 51-9.96 1.74-20 0.5-12.75-18.75-25.5-37.5-0.75 18.99-0.5 38-9.5 0-19 0 0-39 0-78z"/>
	</g>
	<g>
		<path fill-rule="evenodd" class="s8" d="m122.5 662.5q22.01-0.25 44 0.5 29.49 5.75 18.5 33.5-5.04 6.39-12.5 9.5-12.21 4.03-25 5.5 1.71 4.46 6 6.5 17.4 5.19 34-2.5 1.5 12.46 1 25-29.88 2.19-43.5-24-1.73-5.91-2.5-12 15.03 0.57 25.5-10 8.3-21.15-13.5-27.5-6.98-0.75-14-0.5 0 37 0 74-9 0-18 0 0-39 0-78z"/>
	</g>
	<g>
		<path fill-rule="evenodd" class="s8" d="m213.5 662.5q19 0 38 0 7.62 38.58 16 77-10.33 1.96-20.5 0-6.43-35.66-14-71-9.59 11.74-11 27-1.73 22.21 2.5 44-12.96 1.5-26 1 7.5-39 15-78z"/>
	</g>
	<g>
		<path fill-rule="evenodd" class="s7" d="m276.5 662.5q30.2-8.31 34.5 22 1.07 14.58 3 29 3.04 6.67 10.5 8 1.5-29.49 1-59 9 0 18 0 0 39 0 78-11.51 0.25-23-0.5-3.19-1.68-5.5-4.5-3.39-6.68-5-14-1.4-16.02-3-32-3.61-7.93-12.5-7 0 29 0 58-9 0-18 0 0-39 0-78z"/>
	</g>
	<g>
		<path fill-rule="evenodd" class="s7" d="m351.5 662.5q12 0 24 0 0 39 0 78-9 0-18 0 0.25-33.51-0.5-67-1.2-6.41-5.5-11z"/>
	</g>
	<g>
		<path fill-rule="evenodd" class="s5" d="m472.5 662.5q31 0 62 0 0 17.5 0 35-5.46-0.36-8.5-5-4.41-13.59-14.5-23.5-2.38-1.29-5-2-7.98-0.75-16-0.5-0.48 14.37 1 28.5 12.77-0.4 25-4.5 0 12.5 0 25-13.38 0.48-25.5-5-0.75 14.99-0.5 30-9 0-18 0 0-39 0-78z"/>
	</g>
	<g>
		<path fill-rule="evenodd" class="s8" d="m544.5 662.5q9 0 18 0 0 37.5 0 75 9.01 0.25 18-0.5 9.51-2.51 13.5-11.5 3.09-7.68 7-15 3.21-4.23 8.5-4 0 17 0 34-32.5 0-65 0 0-39 0-78z"/>
	</g>
	<g>
		<path fill-rule="evenodd" class="s8" d="m700.5 662.5q10 0 20 0 5.28 36.65 12.5 73 10.11-11.81 11.5-27.5-4.29-22.71-8-45.5 10 0 20 0 5.6 36.6 12.5 73 10.5-12.52 12-29 1.28-22.08-1.5-44 13 0 26 0-0.9 33.62-18.5 62-6.7 8.2-14.5 15.5-10.99 0.75-22 0.5-0.76-6.58-2.5-13-5.2 6.7-11.5 12.5-10.99 0.75-22 0.5-7.32-38.94-14-78z"/>
	</g>
	<g>
		<path fill-rule="evenodd" class="s9" d="m127.5 771.5q7.49-0.16 13.5 4 1 2.5 0 5-6.78-5.61-15.5-3.5-13.99 9.93-2 22 9.54 3.83 17.5-2.5 1.21 3.12-0.5 6-15.33 7.49-25.5-6-6.38-19.2 12.5-25z"/>
	</g>
	<g>
		<path fill-rule="evenodd" class="s6" d="m279.5 771.5q17.91-0.58 20 17-0.99 15.99-17 17-23.71-4.41-14.5-27 4.84-5.28 11.5-7zm-2 28.5q9.29 2.57 15.5-4.5 5.77-20.46-15.5-19-15.88 11.76 0 23.5z"/>
	</g>
	<g>
		<path fill-rule="evenodd" class="s6" d="m314.5 771.5q6.71-0.26 12.5 3 1 2.5 0 5-6.73-4.56-14.5-2-3.87 3.32 0 6.5 6.5 2.5 13 5 7.39 6.45 1 14-9.5 4.99-19 0-2.48-2.17-2-5.5 5.63 2.8 12 4 11.02-1.4 4-9.5-8.24-1.24-14.5-6.5-3.75-10.98 7.5-14z"/>
	</g>
	<g>
		<path fill-rule="evenodd" class="s10" d="m383.5 771.5q6.35 0.09 12 3 1.71 2.88 0.5 6-6.78-5.61-15.5-3.5-8.8 5.35-6.5 15.5 4.68 11.2 16.5 7.5 3.52-0.52 5.5-3.5 1.14 3.41-0.5 6.5-22.22 8.39-27-14.5 0.99-14.58 15-17z"/>
	</g>
	<g>
		<path fill-rule="evenodd" class="s6" d="m149.5 772.5q8.51-0.25 17 0.5 7.85 3.95 5.5 12.5-2.51 4.26-6.5 7 4.86 5.22 9 11-2.36 1.7-5 0.5-5.18-5.61-10-11.5-2.32-1.43-5-1 0 6.5 0 13-2.5 0-5 0 0-16 0-32zm5 15q6.62 0.72 12.5-2 2.07-5.97-3.5-8.5-4.47-0.75-9-0.5 0 5.5 0 11z"/>
	</g>
	<g>
		<path fill-rule="evenodd" class="s11" d="m191.5 772.5q2.47-0.32 4.5 1 7.16 14.82 13.5 30-7.15 1.92-7-6-8.51-0.25-17 0.5-1.21 3.13-3 6-2.5 1.01-5 0 7.44-15.57 14-31.5zm-4 20.5q5.98 0.75 12 0.5-2.15-7.47-6-14-2.79 6.82-6 13.5z"/>
	</g>
	<g>
		<path fill-rule="evenodd" class="s12" d="m215.5 772.5q4.93-0.35 7.5 4 7.5 10 15 20 0.75-11.99 0.5-24 2 0 4 0 0 16 0 32-4.24 0.63-6.5-3-7.64-10.77-16-21-0.75 11.99-0.5 24-2 0-4 0 0-16 0-32z"/>
	</g>
	<g>
		<path fill-rule="evenodd" class="s13" d="m252.5 772.5q2.5 0 5 0 0 16 0 32-2.5 0-5 0 0-16 0-32z"/>
	</g>
	<g>
		<path fill-rule="evenodd" class="s14" d="m347.5 772.5q2.22-0.39 4 1 7.22 15.18 14 30.5-2.5 1.01-5 0-1.79-2.87-3-6-8.49-0.75-17-0.5 0.15 7.92-7 6 7.01-15.55 14-31zm-4 20q6 1.99 12 0-2.68-7.12-7-13-2.05 6.62-5 13z"/>
	</g>
	<g>
		<path fill-rule="evenodd" class="s15" d="m405.5 772.5q8.02-0.25 16 0.5 8.5 4.23 5.5 13.5-2.43 3.61-6.5 5.5 5 6 10 12-3 1.01-6 0-5-6-10-12-2.45-0.74-5-0.5 0 6.5 0 13-2 0-4 0 0-16 0-32zm4 15q5.52 0.25 11-0.5 4.57-3.67 1.5-8.5-5.88-2.72-12.5-2 0 5.5 0 11z"/>
	</g>
	<g>
		<path fill-rule="evenodd" class="s14" d="m447.5 772.5q2.22-0.39 4 1 6.86 15.34 14 30.5-2.5 1.01-5 0-1.69-2.63-3-5.5-8.5-1.99-17 0-1 2.5-2 5-2.5 1.99-5 0 6.61-15.72 14-31zm-4 21q6.02 0.25 12-0.5-2.97-7.2-7-13.5-2.51 7.01-5 14z"/>
	</g>
	<g>
		<path fill-rule="evenodd" class="s16" d="m470.5 772.5q2.5 0 5 0 0 14 0 28 9 0 18 0 0 2 0 4-11.5 0-23 0 0-16 0-32z"/>
	</g>
	<g>
		<path fill-rule="evenodd" class="s6" d="m513.5 772.5q13.5 0 27 0 0 2 0 4-5.5 0-11 0 0 14 0 28-2.5 0-5 0 0-14 0-28-5.5 0-11 0 0-2 0-4z"/>
	</g>
	<g>
		<path fill-rule="evenodd" class="s17" d="m547.5 772.5q2 0 4 0 0 7 0 14 9 0 18 0 0-7 0-14 2.5 0 5 0 0 16 0 32-2.5 0-5 0 0-7 0-14-9 0-18 0 0 7 0 14-2 0-4 0 0-16 0-32z"/>
	</g>
	<g>
		<path fill-rule="evenodd" class="s6" d="m584.5 772.5q12.5 0 25 0 0 2 0 4-10 0-20 0 0 4.5 0 9 7 0 14 0 0 2.5 0 5-7 0-14 0 0 5 0 10 10 0 20 0 0 2 0 4-12.5 0-25 0 0-16 0-32z"/>
	</g>
	<g>
		<path fill-rule="evenodd" class="s16" d="m617.5 772.5q8.51-0.25 17 0.5 8.29 4.38 5.5 13.5-2.49 3.63-6.5 5.5 5 6 10 12-3 1.01-6 0-5-6-10-12-2.45-0.74-5-0.5 0 6.5 0 13-2.5 0-5 0 0-16 0-32zm5 15q5.02 0.25 10-0.5 5.84-2.93 2.5-8.5-5.88-2.72-12.5-2 0 5.5 0 11z"/>
	</g>
	<g>
		<path fill-rule="evenodd" class="s11" d="m659.5 772.5q2.68-0.43 5 1 6.94 15.37 13 31-2.5 0-5 0-1.1-8.91-10.5-7-9.4-1.91-10.5 7-2.5 0-5 0 6.5-16 13-32zm-4 20.5q6.5 1.01 13 0-3.09-7.08-7-13.5-2.56 6.93-6 13.5z"/>
	</g>
	<g>
		<path fill-rule="evenodd" class="s6" d="m683.5 772.5q9.01-0.25 18 0.5 8.41 4.92 5.5 14.5-1.75 1.75-3.5 3.5-7.31 2.09-15 1.5 0 6 0 12-2.5 0-5 0 0-16 0-32zm5 16q5.52 0.25 11-0.5 8-5.5 0-11-5.48-0.75-11-0.5 0 6 0 12z"/>
	</g>
</svg>
